ffmpeg started on 2026-01-14 at 13:52:25
Report written to "D:\Convert\FFMetrics\reports\psnr_report-6.txt"
Log level: 32
Command line:
ffmpeg -hide_banner -nostdin -r 24000/1001 -i "F:\\Convert\\files\\[DC] Make Heroine ga Oosugiru - 07_Telegram_HEVC(120).mkv" -r 24000/1001 -i "F:\\Convert\\files\\[DC] Make Heroine ga Oosugiru - 07_Telegram.mp4" -lavfi "[0:v]settb=AVTB,setpts=PTS-STARTPTS,format=pix_fmts=yuv420p10le,fps=24000/1001,scale=1920:1080:flags=lanczos:param0=3:out_range=limited:out_color_matrix=bt709:out_chroma_loc=left,setsar=1/1,setdar=(1920/1080)*(1/1),colorspace=format=yuv420p10:range=tv:primaries=bt709:trc=bt709:space=bt709:fast=0[main];[1:v]settb=AVTB,setpts=PTS-STARTPTS,format=pix_fmts=yuv420p,fps=24000/1001,scale=1920:1080:flags=lanczos:param0=3:out_range=limited:out_color_matrix=bt709:out_chroma_loc=left,setsar=1.000,setdar=1.778,colorspace=format=yuv420p:range=tv:primaries=bt709:trc=bt709:space=bt709:fast=0[ref];[main][ref]psnr=eof_action=endall:stats_file='D\\:/Convert/FFMetrics/logs/psnr_logfile-6.txt'" -f null -
Input #0, matroska,webm, from 'F:\Convert\files\[DC] Make Heroine ga Oosugiru - 07_Telegram_HEVC(120).mkv':
  Metadata:
    COMPATIBLE_BRANDS: isomiso2avc1mp41
    MAJOR_BRAND     : isom
    MINOR_VERSION   : 512
    ENCODER         : Lavf61.7.100
  Duration: 00:24:06.79, start: -0.021000, bitrate: 1008 kb/s
  Stream #0:0: Video: hevc (Main 10), yuv420p10le(tv, bt709, progressive), 1920x1080 [SAR 1:1 DAR 16:9], 23.98 fps, 23.98 tbr, 1k tbn (default)
      Metadata:
        HANDLER_NAME    : VideoHandler
        VENDOR_ID       : [0][0][0][0]
        ENCODER         : Lavc61.19.100 libx265
        BPS             : 811158
        DURATION        : 00:24:06.569708333
        NUMBER_OF_FRAMES: 34683
        NUMBER_OF_BYTES : 146674585
        _STATISTICS_WRITING_APP: mkvpropedit v94.0 ('Initiate') 64-bit
        _STATISTICS_WRITING_DATE_UTC: 2026-01-12 16:17:55
        _STATISTICS_TAGS: BPS DURATION NUMBER_OF_FRAMES NUMBER_OF_BYTES
  Stream #0:1: Audio: aac (LC), 48000 Hz, stereo, fltp (default)
      Metadata:
        HANDLER_NAME    : SoundHandler
        VENDOR_ID       : [0][0][0][0]
        ENCODER         : Lavc61.19.100 aac
        BPS             : 193194
        DURATION        : 00:24:06.784000000
        NUMBER_OF_FRAMES: 67819
        NUMBER_OF_BYTES : 34938755
        _STATISTICS_WRITING_APP: mkvpropedit v94.0 ('Initiate') 64-bit
        _STATISTICS_WRITING_DATE_UTC: 2026-01-12 16:17:55
        _STATISTICS_TAGS: BPS DURATION NUMBER_OF_FRAMES NUMBER_OF_BYTES
Input #1, mov,mp4,m4a,3gp,3g2,mj2, from 'F:\Convert\files\[DC] Make Heroine ga Oosugiru - 07_Telegram.mp4':
  Metadata:
    major_brand     : isom
    minor_version   : 512
    compatible_brands: isomiso2avc1mp41
    encoder         : Lavf60.16.100
  Duration: 00:24:06.74, start: 0.000000, bitrate: 3764 kb/s
  Stream #1:0[0x1](und): Video: h264 (High) (avc1 / 0x31637661), yuv420p(tv, bt709, progressive), 1920x1080 [SAR 1:1 DAR 16:9], 3616 kb/s, 23.98 fps, 23.98 tbr, 24k tbn (default)
      Metadata:
        handler_name    : VideoHandler
        vendor_id       : [0][0][0][0]
        encoder         : Lavc60.31.102 h264_qsv
  Stream #1:1[0x2](und): Audio: aac (HE-AACv2) (mp4a / 0x6134706D), 48000 Hz, stereo, fltp, 144 kb/s (default)
      Metadata:
        handler_name    : SoundHandler
        vendor_id       : [0][0][0][0]
Stream mapping:
  Stream #0:0 (hevc) -> settb:default
  Stream #1:0 (h264) -> settb:default
  psnr:default -> Stream #0:0 (wrapped_avframe)
  Stream #0:1 -> #0:1 (aac (native) -> pcm_s16le (native))
Output #0, null, to 'pipe:':
  Metadata:
    COMPATIBLE_BRANDS: isomiso2avc1mp41
    MAJOR_BRAND     : isom
    MINOR_VERSION   : 512
    encoder         : Lavf61.7.100
  Stream #0:0: Video: wrapped_avframe, yuv420p10le(tv, bt709, progressive), 1920x1080 [SAR 1:1 DAR 16:9], q=2-31, 200 kb/s, 23.98 fps, 23.98 tbn
      Metadata:
        encoder         : Lavc61.19.100 wrapped_avframe
  Stream #0:1: Audio: pcm_s16le, 48000 Hz, stereo, s16, 1536 kb/s (default)
      Metadata:
        HANDLER_NAME    : SoundHandler
        VENDOR_ID       : [0][0][0][0]
        _STATISTICS_TAGS: BPS DURATION NUMBER_OF_FRAMES NUMBER_OF_BYTES
        BPS             : 193194
        DURATION        : 00:24:06.784000000
        NUMBER_OF_FRAMES: 67819
        NUMBER_OF_BYTES : 34938755
        _STATISTICS_WRITING_APP: mkvpropedit v94.0 ('Initiate') 64-bit
        _STATISTICS_WRITING_DATE_UTC: 2026-01-12 16:17:55
        encoder         : Lavc61.19.100 pcm_s16le
frame=   97 fps=0.0 q=-0.0 size=N/A time=00:00:04.04 bitrate=N/A speed= 7.7x    frame=  250 fps=240 q=-0.0 size=N/A time=00:00:10.42 bitrate=N/A speed=  10x    frame=  425 fps=274 q=-0.0 size=N/A time=00:00:17.72 bitrate=N/A speed=11.4x    frame=  621 fps=299 q=-0.0 size=N/A time=00:00:25.90 bitrate=N/A speed=12.5x    frame=  786 fps=305 q=-0.0 size=N/A time=00:00:32.78 bitrate=N/A speed=12.7x    frame=  918 fps=296 q=-0.0 size=N/A time=00:00:38.28 bitrate=N/A speed=12.4x    frame= 1028 fps=284 q=-0.0 size=N/A time=00:00:42.87 bitrate=N/A speed=11.8x    frame= 1146 fps=278 q=-0.0 size=N/A time=00:00:47.79 bitrate=N/A speed=11.6x    frame= 1273 fps=274 q=-0.0 size=N/A time=00:00:53.09 bitrate=N/A speed=11.4x    frame= 1406 fps=272 q=-0.0 size=N/A time=00:00:58.64 bitrate=N/A speed=11.4x    frame= 1534 fps=270 q=-0.0 size=N/A time=00:01:03.98 bitrate=N/A speed=11.3x    frame= 1646 fps=266 q=-0.0 size=N/A time=00:01:08.65 bitrate=N/A speed=11.1x    frame= 1778 fps=265 q=-0.0 size=N/A time=00:01:14.15 bitrate=N/A speed=  11x    frame= 1902 fps=263 q=-0.0 size=N/A time=00:01:19.32 bitrate=N/A speed=  11x    frame= 2027 fps=262 q=-0.0 size=N/A time=00:01:24.54 bitrate=N/A speed=10.9x    frame= 2101 fps=254 q=-0.0 size=N/A time=00:01:27.62 bitrate=N/A speed=10.6x    frame= 2223 fps=254 q=-0.0 size=N/A time=00:01:32.71 bitrate=N/A speed=10.6x    frame= 2312 fps=249 q=-0.0 size=N/A time=00:01:36.42 bitrate=N/A speed=10.4x    frame= 2404 fps=245 q=-0.0 size=N/A time=00:01:40.26 bitrate=N/A speed=10.2x    frame= 2458 fps=238 q=-0.0 size=N/A time=00:01:42.51 bitrate=N/A speed=9.94x    frame= 2559 fps=236 q=-0.0 size=N/A time=00:01:46.73 bitrate=N/A speed=9.85x    frame= 2681 fps=236 q=-0.0 size=N/A time=00:01:51.82 bitrate=N/A speed=9.86x    frame= 2832 fps=239 q=-0.0 size=N/A time=00:01:58.11 bitrate=N/A speed=9.95x    frame= 2970 fps=240 q=-0.0 size=N/A time=00:02:03.87 bitrate=N/A speed=  10x    frame= 3112 fps=241 q=-0.0 size=N/A time=00:02:09.79 bitrate=N/A speed=10.1x    frame= 3267 fps=244 q=-0.0 size=N/A time=00:02:16.26 bitrate=N/A speed=10.2x    frame= 3406 fps=245 q=-0.0 size=N/A time=00:02:22.05 bitrate=N/A speed=10.2x    frame= 3534 fps=245 q=-0.0 size=N/A time=00:02:27.39 bitrate=N/A speed=10.2x    frame= 3662 fps=245 q=-0.0 size=N/A time=00:02:32.73 bitrate=N/A speed=10.2x    frame= 3791 fps=245 q=-0.0 size=N/A time=00:02:38.11 bitrate=N/A speed=10.2x    frame= 3915 fps=245 q=-0.0 size=N/A time=00:02:43.28 bitrate=N/A speed=10.2x    frame= 4040 fps=245 q=-0.0 size=N/A time=00:02:48.50 bitrate=N/A speed=10.2x    frame= 4166 fps=245 q=-0.0 size=N/A time=00:02:53.75 bitrate=N/A speed=10.2x    frame= 4304 fps=245 q=-0.0 size=N/A time=00:02:59.51 bitrate=N/A speed=10.2x    frame= 4445 fps=246 q=-0.0 size=N/A time=00:03:05.39 bitrate=N/A speed=10.3x    frame= 4564 fps=246 q=-0.0 size=N/A time=00:03:10.35 bitrate=N/A speed=10.3x    frame= 4714 fps=247 q=-0.0 size=N/A time=00:03:16.61 bitrate=N/A speed=10.3x    frame= 4877 fps=249 q=-0.0 size=N/A time=00:03:23.41 bitrate=N/A speed=10.4x    frame= 4989 fps=248 q=-0.0 size=N/A time=00:03:28.08 bitrate=N/A speed=10.3x    frame= 5130 fps=249 q=-0.0 size=N/A time=00:03:33.96 bitrate=N/A speed=10.4x    frame= 5311 fps=251 q=-0.0 size=N/A time=00:03:41.51 bitrate=N/A speed=10.5x    frame= 5485 fps=253 q=-0.0 size=N/A time=00:03:48.77 bitrate=N/A speed=10.6x    frame= 5679 fps=256 q=-0.0 size=N/A time=00:03:56.86 bitrate=N/A speed=10.7x    frame= 5841 fps=257 q=-0.0 size=N/A time=00:04:03.61 bitrate=N/A speed=10.7x    frame= 6020 fps=259 q=-0.0 size=N/A time=00:04:11.08 bitrate=N/A speed=10.8x    frame= 6211 fps=262 q=-0.0 size=N/A time=00:04:19.05 bitrate=N/A speed=10.9x    frame= 6354 fps=262 q=-0.0 size=N/A time=00:04:25.01 bitrate=N/A speed=10.9x    frame= 6537 fps=264 q=-0.0 size=N/A time=00:04:32.64 bitrate=N/A speed=  11x    frame= 6689 fps=265 q=-0.0 size=N/A time=00:04:38.98 bitrate=N/A speed=  11x    frame= 6834 fps=265 q=-0.0 size=N/A time=00:04:45.03 bitrate=N/A speed=11.1x    frame= 7004 fps=266 q=-0.0 size=N/A time=00:04:52.12 bitrate=N/A speed=11.1x    frame= 7191 fps=268 q=-0.0 size=N/A time=00:04:59.92 bitrate=N/A speed=11.2x    frame= 7381 fps=270 q=-0.0 size=N/A time=00:05:07.84 bitrate=N/A speed=11.3x    frame= 7572 fps=272 q=-0.0 size=N/A time=00:05:15.81 bitrate=N/A speed=11.3x    frame= 7751 fps=273 q=-0.0 size=N/A time=00:05:23.28 bitrate=N/A speed=11.4x    frame= 7943 fps=275 q=-0.0 size=N/A time=00:05:31.28 bitrate=N/A speed=11.5x    frame= 8130 fps=277 q=-0.0 size=N/A time=00:05:39.08 bitrate=N/A speed=11.5x    frame= 8321 fps=278 q=-0.0 size=N/A time=00:05:47.05 bitrate=N/A speed=11.6x    frame= 8510 fps=280 q=-0.0 size=N/A time=00:05:54.93 bitrate=N/A speed=11.7x    frame= 8703 fps=281 q=-0.0 size=N/A time=00:06:02.98 bitrate=N/A speed=11.7x    frame= 8887 fps=283 q=-0.0 size=N/A time=00:06:10.66 bitrate=N/A speed=11.8x    frame= 9068 fps=284 q=-0.0 size=N/A time=00:06:18.21 bitrate=N/A speed=11.8x    frame= 9249 fps=285 q=-0.0 size=N/A time=00:06:25.76 bitrate=N/A speed=11.9x    frame= 9434 fps=286 q=-0.0 size=N/A time=00:06:33.47 bitrate=N/A speed=11.9x    frame= 9609 fps=287 q=-0.0 size=N/A time=00:06:40.77 bitrate=N/A speed=  12x    frame= 9779 fps=287 q=-0.0 size=N/A time=00:06:47.86 bitrate=N/A speed=  12x    frame= 9921 fps=287 q=-0.0 size=N/A time=00:06:53.78 bitrate=N/A speed=  12x    frame=10078 fps=287 q=-0.0 size=N/A time=00:07:00.33 bitrate=N/A speed=  12x    frame=10233 fps=288 q=-0.0 size=N/A time=00:07:06.80 bitrate=N/A speed=  12x    frame=10401 fps=288 q=-0.0 size=N/A time=00:07:13.80 bitrate=N/A speed=  12x    frame=10574 fps=289 q=-0.0 size=N/A time=00:07:21.02 bitrate=N/A speed=  12x    frame=10754 fps=290 q=-0.0 size=N/A time=00:07:28.53 bitrate=N/A speed=12.1x    frame=10928 fps=290 q=-0.0 size=N/A time=00:07:35.78 bitrate=N/A speed=12.1x    frame=11120 fps=291 q=-0.0 size=N/A time=00:07:43.79 bitrate=N/A speed=12.2x    frame=11307 fps=292 q=-0.0 size=N/A time=00:07:51.59 bitrate=N/A speed=12.2x    frame=11499 fps=293 q=-0.0 size=N/A time=00:07:59.60 bitrate=N/A speed=12.2x    frame=11686 fps=294 q=-0.0 size=N/A time=00:08:07.40 bitrate=N/A speed=12.3x    frame=11886 fps=295 q=-0.0 size=N/A time=00:08:15.74 bitrate=N/A speed=12.3x    frame=12073 fps=296 q=-0.0 size=N/A time=00:08:23.54 bitrate=N/A speed=12.4x    frame=12257 fps=297 q=-0.0 size=N/A time=00:08:31.21 bitrate=N/A speed=12.4x    frame=12444 fps=298 q=-0.0 size=N/A time=00:08:39.01 bitrate=N/A speed=12.4x    frame=12635 fps=299 q=-0.0 size=N/A time=00:08:46.98 bitrate=N/A speed=12.5x    frame=12833 fps=300 q=-0.0 size=N/A time=00:08:55.24 bitrate=N/A speed=12.5x    frame=13014 fps=300 q=-0.0 size=N/A time=00:09:02.79 bitrate=N/A speed=12.5x    frame=13215 fps=301 q=-0.0 size=N/A time=00:09:11.17 bitrate=N/A speed=12.6x    frame=13397 fps=302 q=-0.0 size=N/A time=00:09:18.76 bitrate=N/A speed=12.6x    frame=13582 fps=303 q=-0.0 size=N/A time=00:09:26.48 bitrate=N/A speed=12.6x    frame=13779 fps=304 q=-0.0 size=N/A time=00:09:34.69 bitrate=N/A speed=12.7x    frame=13964 fps=304 q=-0.0 size=N/A time=00:09:42.41 bitrate=N/A speed=12.7x    frame=14134 fps=304 q=-0.0 size=N/A time=00:09:49.50 bitrate=N/A speed=12.7x    frame=14315 fps=305 q=-0.0 size=N/A time=00:09:57.05 bitrate=N/A speed=12.7x    frame=14513 fps=306 q=-0.0 size=N/A time=00:10:05.31 bitrate=N/A speed=12.8x    frame=14699 fps=306 q=-0.0 size=N/A time=00:10:13.07 bitrate=N/A speed=12.8x    frame=14895 fps=307 q=-0.0 size=N/A time=00:10:21.24 bitrate=N/A speed=12.8x    frame=15074 fps=308 q=-0.0 size=N/A time=00:10:28.71 bitrate=N/A speed=12.8x    frame=15223 fps=307 q=-0.0 size=N/A time=00:10:34.92 bitrate=N/A speed=12.8x    frame=15412 fps=308 q=-0.0 size=N/A time=00:10:42.80 bitrate=N/A speed=12.8x    frame=15605 fps=309 q=-0.0 size=N/A time=00:10:50.85 bitrate=N/A speed=12.9x    frame=15796 fps=309 q=-0.0 size=N/A time=00:10:58.82 bitrate=N/A speed=12.9x    frame=15990 fps=310 q=-0.0 size=N/A time=00:11:06.91 bitrate=N/A speed=12.9x    frame=16187 fps=311 q=-0.0 size=N/A time=00:11:15.13 bitrate=N/A speed=  13x    frame=16381 fps=311 q=-0.0 size=N/A time=00:11:23.22 bitrate=N/A speed=  13x    frame=16570 fps=312 q=-0.0 size=N/A time=00:11:31.10 bitrate=N/A speed=  13x    frame=16776 fps=313 q=-0.0 size=N/A time=00:11:39.69 bitrate=N/A speed=  13x    frame=16967 fps=313 q=-0.0 size=N/A time=00:11:47.66 bitrate=N/A speed=13.1x    frame=17163 fps=314 q=-0.0 size=N/A time=00:11:55.84 bitrate=N/A speed=13.1x    frame=17361 fps=314 q=-0.0 size=N/A time=00:12:04.09 bitrate=N/A speed=13.1x    frame=17552 fps=315 q=-0.0 size=N/A time=00:12:12.06 bitrate=N/A speed=13.1x    frame=17735 fps=315 q=-0.0 size=N/A time=00:12:19.69 bitrate=N/A speed=13.2x    frame=17927 fps=316 q=-0.0 size=N/A time=00:12:27.70 bitrate=N/A speed=13.2x    frame=18122 fps=316 q=-0.0 size=N/A time=00:12:35.83 bitrate=N/A speed=13.2x    frame=18298 fps=317 q=-0.0 size=N/A time=00:12:43.17 bitrate=N/A speed=13.2x    frame=18492 fps=317 q=-0.0 size=N/A time=00:12:51.27 bitrate=N/A speed=13.2x    frame=18688 fps=318 q=-0.0 size=N/A time=00:12:59.44 bitrate=N/A speed=13.3x    frame=18882 fps=318 q=-0.0 size=N/A time=00:13:07.53 bitrate=N/A speed=13.3x    frame=19079 fps=319 q=-0.0 size=N/A time=00:13:15.75 bitrate=N/A speed=13.3x    frame=19282 fps=319 q=-0.0 size=N/A time=00:13:24.22 bitrate=N/A speed=13.3x    frame=19480 fps=320 q=-0.0 size=N/A time=00:13:32.47 bitrate=N/A speed=13.3x    frame=19676 fps=320 q=-0.0 size=N/A time=00:13:40.65 bitrate=N/A speed=13.4x    frame=19879 fps=321 q=-0.0 size=N/A time=00:13:49.11 bitrate=N/A speed=13.4x    frame=20078 fps=322 q=-0.0 size=N/A time=00:13:57.41 bitrate=N/A speed=13.4x    frame=20277 fps=322 q=-0.0 size=N/A time=00:14:05.71 bitrate=N/A speed=13.4x    frame=20470 fps=323 q=-0.0 size=N/A time=00:14:13.76 bitrate=N/A speed=13.5x    frame=20627 fps=322 q=-0.0 size=N/A time=00:14:20.31 bitrate=N/A speed=13.4x    frame=20809 fps=323 q=-0.0 size=N/A time=00:14:27.90 bitrate=N/A speed=13.5x    frame=21007 fps=323 q=-0.0 size=N/A time=00:14:36.16 bitrate=N/A speed=13.5x    frame=21208 fps=324 q=-0.0 size=N/A time=00:14:44.55 bitrate=N/A speed=13.5x    frame=21405 fps=324 q=-0.0 size=N/A time=00:14:52.76 bitrate=N/A speed=13.5x    frame=21597 fps=325 q=-0.0 size=N/A time=00:15:00.77 bitrate=N/A speed=13.5x    frame=21797 fps=325 q=-0.0 size=N/A time=00:15:09.11 bitrate=N/A speed=13.6x    frame=21997 fps=325 q=-0.0 size=N/A time=00:15:17.45 bitrate=N/A speed=13.6x    frame=22190 fps=326 q=-0.0 size=N/A time=00:15:25.50 bitrate=N/A speed=13.6x    frame=22387 fps=326 q=-0.0 size=N/A time=00:15:33.72 bitrate=N/A speed=13.6x    frame=22577 fps=327 q=-0.0 size=N/A time=00:15:41.64 bitrate=N/A speed=13.6x    frame=22774 fps=327 q=-0.0 size=N/A time=00:15:49.86 bitrate=N/A speed=13.6x    frame=22957 fps=327 q=-0.0 size=N/A time=00:15:57.49 bitrate=N/A speed=13.6x    frame=23154 fps=328 q=-0.0 size=N/A time=00:16:05.71 bitrate=N/A speed=13.7x    frame=23350 fps=328 q=-0.0 size=N/A time=00:16:13.88 bitrate=N/A speed=13.7x    frame=23551 fps=328 q=-0.0 size=N/A time=00:16:22.27 bitrate=N/A speed=13.7x    frame=23723 fps=328 q=-0.0 size=N/A time=00:16:29.44 bitrate=N/A speed=13.7x    frame=23863 fps=328 q=-0.0 size=N/A time=00:16:35.28 bitrate=N/A speed=13.7x    frame=23967 fps=327 q=-0.0 size=N/A time=00:16:39.62 bitrate=N/A speed=13.6x    frame=24125 fps=327 q=-0.0 size=N/A time=00:16:46.21 bitrate=N/A speed=13.6x    frame=24286 fps=327 q=-0.0 size=N/A time=00:16:52.92 bitrate=N/A speed=13.6x    frame=24472 fps=327 q=-0.0 size=N/A time=00:17:00.68 bitrate=N/A speed=13.6x    frame=24669 fps=328 q=-0.0 size=N/A time=00:17:08.90 bitrate=N/A speed=13.7x    frame=24864 fps=328 q=-0.0 size=N/A time=00:17:17.03 bitrate=N/A speed=13.7x    frame=25041 fps=328 q=-0.0 size=N/A time=00:17:24.41 bitrate=N/A speed=13.7x    frame=25224 fps=328 q=-0.0 size=N/A time=00:17:32.05 bitrate=N/A speed=13.7x    frame=25412 fps=328 q=-0.0 size=N/A time=00:17:39.89 bitrate=N/A speed=13.7x    frame=25600 fps=329 q=-0.0 size=N/A time=00:17:47.73 bitrate=N/A speed=13.7x    frame=25792 fps=329 q=-0.0 size=N/A time=00:17:55.74 bitrate=N/A speed=13.7x    frame=25986 fps=329 q=-0.0 size=N/A time=00:18:03.83 bitrate=N/A speed=13.7x    frame=26135 fps=329 q=-0.0 size=N/A time=00:18:10.04 bitrate=N/A speed=13.7x    frame=26322 fps=329 q=-0.0 size=N/A time=00:18:17.84 bitrate=N/A speed=13.7x    frame=26515 fps=329 q=-0.0 size=N/A time=00:18:25.89 bitrate=N/A speed=13.7x    frame=26715 fps=330 q=-0.0 size=N/A time=00:18:34.23 bitrate=N/A speed=13.8x    frame=26899 fps=330 q=-0.0 size=N/A time=00:18:41.91 bitrate=N/A speed=13.8x    frame=27065 fps=330 q=-0.0 size=N/A time=00:18:48.83 bitrate=N/A speed=13.8x    frame=27252 fps=330 q=-0.0 size=N/A time=00:18:56.63 bitrate=N/A speed=13.8x    frame=27430 fps=330 q=-0.0 size=N/A time=00:19:04.05 bitrate=N/A speed=13.8x    frame=27619 fps=331 q=-0.0 size=N/A time=00:19:11.94 bitrate=N/A speed=13.8x    frame=27798 fps=331 q=-0.0 size=N/A time=00:19:19.40 bitrate=N/A speed=13.8x    frame=27984 fps=331 q=-0.0 size=N/A time=00:19:27.16 bitrate=N/A speed=13.8x    frame=28169 fps=331 q=-0.0 size=N/A time=00:19:34.88 bitrate=N/A speed=13.8x    frame=28360 fps=331 q=-0.0 size=N/A time=00:19:42.84 bitrate=N/A speed=13.8x    frame=28551 fps=331 q=-0.0 size=N/A time=00:19:50.81 bitrate=N/A speed=13.8x    frame=28731 fps=332 q=-0.0 size=N/A time=00:19:58.32 bitrate=N/A speed=13.8x    frame=28904 fps=332 q=-0.0 size=N/A time=00:20:05.53 bitrate=N/A speed=13.8x    frame=29069 fps=331 q=-0.0 size=N/A time=00:20:12.41 bitrate=N/A speed=13.8x    frame=29248 fps=332 q=-0.0 size=N/A time=00:20:19.88 bitrate=N/A speed=13.8x    frame=29422 fps=332 q=-0.0 size=N/A time=00:20:27.14 bitrate=N/A speed=13.8x    frame=29580 fps=331 q=-0.0 size=N/A time=00:20:33.73 bitrate=N/A speed=13.8x    frame=29747 fps=331 q=-0.0 size=N/A time=00:20:40.69 bitrate=N/A speed=13.8x    frame=29915 fps=331 q=-0.0 size=N/A time=00:20:47.70 bitrate=N/A speed=13.8x    frame=30074 fps=331 q=-0.0 size=N/A time=00:20:54.33 bitrate=N/A speed=13.8x    frame=30258 fps=331 q=-0.0 size=N/A time=00:21:02.01 bitrate=N/A speed=13.8x    frame=30435 fps=331 q=-0.0 size=N/A time=00:21:09.39 bitrate=N/A speed=13.8x    frame=30621 fps=332 q=-0.0 size=N/A time=00:21:17.15 bitrate=N/A speed=13.8x    frame=30815 fps=332 q=-0.0 size=N/A time=00:21:25.24 bitrate=N/A speed=13.8x    frame=30999 fps=332 q=-0.0 size=N/A time=00:21:32.91 bitrate=N/A speed=13.8x    frame=31193 fps=332 q=-0.0 size=N/A time=00:21:41.00 bitrate=N/A speed=13.9x    frame=31374 fps=332 q=-0.0 size=N/A time=00:21:48.55 bitrate=N/A speed=13.9x    frame=31567 fps=333 q=-0.0 size=N/A time=00:21:56.60 bitrate=N/A speed=13.9x    frame=31749 fps=333 q=-0.0 size=N/A time=00:22:04.19 bitrate=N/A speed=13.9x    frame=31932 fps=333 q=-0.0 size=N/A time=00:22:11.83 bitrate=N/A speed=13.9x    frame=32118 fps=333 q=-0.0 size=N/A time=00:22:19.58 bitrate=N/A speed=13.9x    frame=32308 fps=333 q=-0.0 size=N/A time=00:22:27.51 bitrate=N/A speed=13.9x    frame=32505 fps=333 q=-0.0 size=N/A time=00:22:35.72 bitrate=N/A speed=13.9x    frame=32664 fps=333 q=-0.0 size=N/A time=00:22:42.36 bitrate=N/A speed=13.9x    frame=32828 fps=333 q=-0.0 size=N/A time=00:22:49.20 bitrate=N/A speed=13.9x    frame=32998 fps=333 q=-0.0 size=N/A time=00:22:56.29 bitrate=N/A speed=13.9x    frame=33179 fps=333 q=-0.0 size=N/A time=00:23:03.84 bitrate=N/A speed=13.9x    frame=33350 fps=333 q=-0.0 size=N/A time=00:23:10.97 bitrate=N/A speed=13.9x    frame=33512 fps=333 q=-0.0 size=N/A time=00:23:17.72 bitrate=N/A speed=13.9x    frame=33659 fps=333 q=-0.0 size=N/A time=00:23:23.86 bitrate=N/A speed=13.9x    frame=33790 fps=333 q=-0.0 size=N/A time=00:23:29.32 bitrate=N/A speed=13.9x    frame=33922 fps=332 q=-0.0 size=N/A time=00:23:34.83 bitrate=N/A speed=13.9x    frame=34078 fps=332 q=-0.0 size=N/A time=00:23:41.33 bitrate=N/A speed=13.8x    frame=34233 fps=332 q=-0.0 size=N/A time=00:23:47.80 bitrate=N/A speed=13.8x    frame=34363 fps=331 q=-0.0 size=N/A time=00:23:53.22 bitrate=N/A speed=13.8x    frame=34494 fps=331 q=-0.0 size=N/A time=00:23:58.68 bitrate=N/A speed=13.8x    frame=34665 fps=331 q=-0.0 size=N/A time=00:24:05.81 bitrate=N/A speed=13.8x    [Parsed_psnr_16 @ 0000013e82673dc0] PSNR y:49.181655 u:50.562433 v:50.629111 average:49.603817 min:37.946286 max:inf
[out#0/null @ 0000013efb048a00] video:14903KiB audio:271276KiB subtitle:0KiB other streams:0KiB global headers:0KiB muxing overhead: unknown
frame=34683 fps=331 q=-0.0 Lsize=N/A time=00:24:06.57 bitrate=N/A speed=13.8x    
